<mxfile host="app.diagrams.net" modified="2023-12-02T14:07:19.537Z" agent="Mozilla/5.0 (Windows NT 10.0; Win64; x64; rv:120.0) Gecko/20100101 Firefox/120.0" version="22.1.5" etag="SImi9wvrIUGX2ge2SzBQ" type="github">
  <diagram name="Seite-1" id="q1gcyHog_Ehoj1SjnF7w">
    <mxGraphModel>
      <root>
        <mxCell id="0" />
        <mxCell id="1" parent="0" />
      </root>
    </mxGraphModel>
  </diagram>
</mxfile>
